<svg xmlns="http://www.w3.org/2000/svg" width="110" height="16" viewBox="0 0 110 16" fill="none">
<path d="M15.5535 6.10378L10.9251 5.43113L8.85612 1.2366C8.79961 1.12175 8.70664 1.02878 8.59179 0.972272C8.30377 0.830085 7.95377 0.948574 7.80976 1.2366L5.74075 5.43113L1.11237 6.10378C0.984763 6.12201 0.868096 6.18217 0.778774 6.27331C0.670787 6.3843 0.611282 6.53363 0.613333 6.68847C0.615383 6.84331 0.678823 6.991 0.789711 7.0991L4.13841 10.3639L3.34726 14.9741C3.32871 15.0813 3.34058 15.1916 3.38152 15.2925C3.42246 15.3933 3.49084 15.4807 3.5789 15.5446C3.66696 15.6086 3.77118 15.6466 3.87974 15.6543C3.9883 15.6621 4.09685 15.6392 4.1931 15.5884L8.33294 13.4119L12.4728 15.5884C12.5858 15.6486 12.7171 15.6686 12.8428 15.6468C13.16 15.5921 13.3733 15.2913 13.3186 14.9741L12.5275 10.3639L15.8762 7.0991C15.9673 7.00977 16.0275 6.89311 16.0457 6.7655C16.0949 6.44649 15.8725 6.15118 15.5535 6.10378V6.10378Z" fill="#F9C952"/>
<path d="M38.8855 6.10378L34.2572 5.43113L32.1881 1.2366C32.1316 1.12175 32.0387 1.02878 31.9238 0.972272C31.6358 0.830085 31.2858 0.948574 31.1418 1.2366L29.0728 5.43113L24.4444 6.10378C24.3168 6.12201 24.2001 6.18217 24.1108 6.27331C24.0028 6.3843 23.9433 6.53363 23.9454 6.68847C23.9474 6.84331 24.0109 6.991 24.1217 7.0991L27.4704 10.3639L26.6793 14.9741C26.6607 15.0813 26.6726 15.1916 26.7136 15.2925C26.7545 15.3933 26.8229 15.4807 26.9109 15.5446C26.999 15.6086 27.1032 15.6466 27.2118 15.6543C27.3203 15.6621 27.4289 15.6392 27.5251 15.5884L31.665 13.4119L35.8048 15.5884C35.9178 15.6486 36.0491 15.6686 36.1749 15.6468C36.4921 15.5921 36.7053 15.2913 36.6506 14.9741L35.8595 10.3639L39.2082 7.0991C39.2993 7.00977 39.3595 6.89311 39.3777 6.7655C39.427 6.44649 39.2046 6.15118 38.8855 6.10378V6.10378Z" fill="#F9C952"/>
<path d="M62.2215 6.10378L57.5931 5.43113L55.5241 1.2366C55.4676 1.12175 55.3746 1.02878 55.2598 0.972272C54.9717 0.830085 54.6217 0.948574 54.4777 1.2366L52.4087 5.43113L47.7803 6.10378C47.6527 6.12201 47.5361 6.18217 47.4467 6.27331C47.3388 6.3843 47.2793 6.53363 47.2813 6.68847C47.2834 6.84331 47.3468 6.991 47.4577 7.0991L50.8064 10.3639L50.0152 14.9741C49.9967 15.0813 50.0085 15.1916 50.0495 15.2925C50.0904 15.3933 50.1588 15.4807 50.2469 15.5446C50.3349 15.6086 50.4391 15.6466 50.5477 15.6543C50.6563 15.6621 50.7648 15.6392 50.8611 15.5884L55.0009 13.4119L59.1408 15.5884C59.2538 15.6486 59.385 15.6686 59.5108 15.6468C59.828 15.5921 60.0413 15.2913 59.9866 14.9741L59.1954 10.3639L62.5441 7.0991C62.6353 7.00977 62.6954 6.89311 62.7137 6.7655C62.7629 6.44649 62.5405 6.15118 62.2215 6.10378V6.10378Z" fill="#F9C952"/>
<path d="M85.5535 6.10378L80.9251 5.43113L78.8561 1.2366C78.7996 1.12175 78.7066 1.02878 78.5918 0.972272C78.3038 0.830085 77.9538 0.948574 77.8098 1.2366L75.7408 5.43113L71.1124 6.10378C70.9848 6.12201 70.8681 6.18217 70.7788 6.27331C70.6708 6.3843 70.6113 6.53363 70.6133 6.68847C70.6154 6.84331 70.6788 6.991 70.7897 7.0991L74.1384 10.3639L73.3473 14.9741C73.3287 15.0813 73.3406 15.1916 73.3815 15.2925C73.4225 15.3933 73.4908 15.4807 73.5789 15.5446C73.667 15.6086 73.7712 15.6466 73.8797 15.6543C73.9883 15.6621 74.0969 15.6392 74.1931 15.5884L78.3329 13.4119L82.4728 15.5884C82.5858 15.6486 82.7171 15.6686 82.8428 15.6468C83.16 15.5921 83.3733 15.2913 83.3186 14.9741L82.5275 10.3639L85.8762 7.0991C85.9673 7.00977 86.0275 6.89311 86.0457 6.7655C86.0949 6.44649 85.8725 6.15118 85.5535 6.10378V6.10378Z" fill="#F9C952"/>
<path d="M108.886 6.10378L104.257 5.43113L102.188 1.2366C102.132 1.12175 102.039 1.02878 101.924 0.972272C101.636 0.830085 101.286 0.948574 101.142 1.2366L99.0728 5.43113L94.4444 6.10378C94.3168 6.12201 94.2001 6.18217 94.1108 6.27331C94.0028 6.3843 93.9433 6.53363 93.9454 6.68847C93.9474 6.84331 94.0109 6.991 94.1217 7.0991L97.4704 10.3639L96.6793 14.9741C96.6607 15.0813 96.6726 15.1916 96.7136 15.2925C96.7545 15.3933 96.8229 15.4807 96.9109 15.5446C96.999 15.6086 97.1032 15.6466 97.2118 15.6543C97.3203 15.6621 97.4289 15.6392 97.5251 15.5884L101.665 13.4119L105.805 15.5884C105.918 15.6486 106.049 15.6686 106.175 15.6468C106.492 15.5921 106.705 15.2913 106.651 14.9741L105.86 10.3639L109.208 7.0991C109.299 7.00977 109.36 6.89311 109.378 6.7655C109.427 6.44649 109.205 6.15118 108.886 6.10378V6.10378Z" fill="#F9C952"/>
</svg>