<?xml version="1.0" encoding="UTF-8"?> <svg xmlns="http://www.w3.org/2000/svg" width="68" height="203" viewBox="0 0 68 203" fill="none"><path d="M3.93311 0.680668C2.65218 0.165324 1.19601 0.785955 0.680668 2.06689C0.165324 3.34782 0.785955 4.80399 2.06689 5.31933L3.93311 0.680668ZM11.5471 198.866C11.473 200.244 12.5306 201.422 13.9093 201.496L36.3768 202.705C37.7555 202.779 38.9333 201.721 39.0075 200.342C39.0816 198.964 38.024 197.786 36.6453 197.712L16.6742 196.638L17.7481 176.667C17.8223 175.288 16.7647 174.11 15.386 174.036C14.0073 173.962 12.8295 175.019 12.7554 176.398L11.5471 198.866ZM2.06689 5.31933C22.9325 13.714 49.647 40.0921 59.0467 75.2003C68.3695 110.021 60.7166 153.731 12.3732 197.14L15.7138 200.86C65.2897 156.344 73.742 110.755 63.8766 73.9072C54.0882 37.3471 26.3213 9.68789 3.93311 0.680668L2.06689 5.31933Z" fill="#f38b3b"></path></svg>