<?xml version="1.0" encoding="UTF-8" standalone="no"?>
<!DOCTYPE svg PUBLIC "-//W3C//DTD SVG 1.1//EN" "http://www.w3.org/Graphics/SVG/1.1/DTD/svg11.dtd">
<svg width="100%" height="100%" viewBox="0 0 1223 321" version="1.1" xmlns="http://www.w3.org/2000/svg" xmlns:xlink="http://www.w3.org/1999/xlink" xml:space="preserve" xmlns:serif="http://www.serif.com/" style="fill-rule:evenodd;clip-rule:evenodd;stroke-linejoin:round;stroke-miterlimit:2;">
    <g transform="matrix(1,0,0,1,-1930.94,-1303.97)">
        <g transform="matrix(1.11715,0,0,1.11715,-267.821,1102.97)">
            <g id="Logo" transform="matrix(2.1897,0,0,2.1897,3057.73,486.999)">
                <g transform="matrix(1.36804,0,0,1.36804,-389.212,155.909)">
                    <g transform="matrix(-103.036,0,0,103.036,-4.74251,-176.497)">
                        <circle cx="0.258" cy="0.077" r="0.465" style="fill:url(#_Radial1);"/>
                    </g>
                    <g transform="matrix(0.658103,0,0,0.658103,-129.864,-230.331)">
                        <g transform="matrix(0.775509,0,0,0.775509,152.139,161.851)">
                            <path d="M0,-175.207C-0.058,-175.56 -0.42,-175.928 -0.904,-175.906C-1.539,-175.815 -1.593,-175.109 -1.134,-174.745C-0.615,-174.334 0.096,-174.623 0,-175.207M-6.375,-175.107C-6.232,-175.506 -6.467,-175.853 -6.877,-175.851C-7.542,-175.839 -8.073,-175.021 -7.666,-174.636C-7.314,-174.303 -6.566,-174.576 -6.375,-175.107M6.583,-174.35C6.384,-174.733 5.83,-175.145 5.352,-175.124C4.799,-175.045 4.976,-174.379 5.517,-173.97C6.072,-173.551 6.716,-173.621 6.666,-174.096C6.657,-174.175 6.629,-174.26 6.583,-174.35M-13.061,-174.168C-12.805,-174.54 -12.812,-174.937 -13.273,-174.931C-14.015,-174.9 -14.915,-173.918 -14.524,-173.567C-14.228,-173.3 -13.435,-173.626 -13.061,-174.168M14.075,-172.533C13.844,-172.812 13.135,-173.406 12.532,-173.352C11.963,-173.169 12.665,-172.286 13.38,-171.926C13.997,-171.616 14.439,-171.737 14.29,-172.177C14.239,-172.325 14.123,-172.475 14.075,-172.533M-20.807,-172.083C-20.4,-172.504 -20.25,-172.969 -20.717,-172.984C-20.727,-172.984 -20.74,-172.983 -20.75,-172.983C-21.57,-172.924 -22.803,-171.789 -22.442,-171.426C-22.196,-171.178 -21.355,-171.516 -20.807,-172.083M23.046,-169.323C22.65,-169.772 21.797,-170.369 21.228,-170.32C20.661,-170.141 21.542,-169.131 22.351,-168.7C23.023,-168.343 23.486,-168.416 23.342,-168.857C23.317,-168.935 23.245,-169.098 23.046,-169.323M-29.902,-168.724C-29.431,-169.196 -29.214,-169.711 -29.681,-169.723C-29.696,-169.723 -29.716,-169.721 -29.73,-169.721C-30.645,-169.623 -32.137,-168.277 -31.751,-167.897C-31.495,-167.645 -30.562,-168.063 -29.902,-168.724M33.366,-164.542C32.931,-165.023 32.015,-165.712 31.432,-165.663C30.834,-165.484 31.809,-164.272 32.827,-163.724C33.513,-163.354 33.943,-163.454 33.767,-163.941C33.732,-164.039 33.633,-164.247 33.366,-164.542M-40.474,-163.562C-39.822,-164.22 -39.653,-164.781 -40.104,-164.787C-40.124,-164.788 -40.15,-164.785 -40.17,-164.784C-41.284,-164.619 -42.782,-162.978 -42.379,-162.626C-42.11,-162.391 -41.184,-162.846 -40.474,-163.562M44.788,-157.617C44.244,-158.319 43.294,-159.041 42.747,-158.998C42.094,-158.817 43.228,-157.282 44.292,-156.679C44.94,-156.311 45.329,-156.423 45.177,-156.932C45.137,-157.068 45.036,-157.297 44.788,-157.617M-51.875,-156.418C-51.368,-157.015 -50.95,-157.834 -51.61,-157.784C-52.785,-157.546 -54.316,-155.598 -53.85,-155.239C-53.547,-155.006 -52.587,-155.579 -51.875,-156.418M56.33,-148.516C55.821,-149.275 54.927,-150.062 54.409,-150.024C53.718,-149.854 54.818,-148.056 55.859,-147.382C56.468,-146.989 56.839,-147.092 56.742,-147.629C56.699,-147.867 56.549,-148.191 56.33,-148.516M-63.451,-146.854C-62.926,-147.572 -62.553,-148.531 -63.218,-148.463C-64.427,-148.134 -65.817,-145.919 -65.261,-145.584C-64.935,-145.388 -64.089,-145.981 -63.451,-146.854M67.005,-137.125C66.588,-137.975 65.76,-138.899 65.238,-138.867C64.504,-138.718 65.5,-136.628 66.469,-135.922C67.022,-135.519 67.365,-135.673 67.284,-136.289C67.262,-136.454 67.196,-136.734 67.005,-137.125M-73.83,-135.286C-73.508,-135.879 -73.078,-137.071 -73.804,-136.971C-74.955,-136.556 -76.068,-134.07 -75.474,-133.799C-75.117,-133.636 -74.349,-134.331 -73.83,-135.286M75.673,-123.879C75.36,-124.771 74.7,-125.709 74.218,-125.686C73.49,-125.575 74.158,-123.206 75.134,-122.437C75.637,-122.041 75.949,-122.325 75.862,-123.097C75.836,-123.323 75.766,-123.615 75.673,-123.879M-82.24,-121.573C-81.984,-122.222 -81.667,-123.601 -82.391,-123.471C-83.499,-122.939 -84.198,-120.244 -83.569,-120.042C-83.214,-119.929 -82.618,-120.616 -82.24,-121.573M81.702,-108.754C81.52,-109.839 80.983,-110.779 80.552,-110.766C79.766,-110.667 80.166,-107.926 81.067,-107.232C81.551,-106.86 81.866,-107.501 81.728,-108.578C81.722,-108.631 81.711,-108.702 81.702,-108.754M-87.778,-106.388C-87.572,-107.369 -87.658,-108.392 -88.157,-108.334C-89.03,-108.036 -89.613,-105.006 -88.857,-104.69C-88.503,-104.542 -87.998,-105.335 -87.778,-106.388M84.458,-92.58C84.428,-93.665 84.064,-94.579 83.664,-94.576C82.872,-94.535 82.853,-91.482 83.64,-90.864C83.742,-90.784 83.82,-90.782 83.877,-90.788C84.371,-90.921 84.474,-91.977 84.458,-92.58M-90.045,-89.862C-89.988,-90.757 -90.164,-92.054 -90.724,-91.995C-91.663,-91.599 -91.48,-88.455 -90.826,-88.211C-90.806,-88.204 -90.778,-88.2 -90.758,-88.196L-90.739,-88.196C-90.271,-88.262 -90.083,-89.274 -90.045,-89.862M83.698,-75.815C83.863,-77.042 83.642,-77.901 83.172,-77.858C82.667,-77.673 82.408,-76.651 82.335,-76.076L82.319,-75.975C82.116,-74.49 82.511,-73.682 82.973,-74.004C83.127,-74.111 83.506,-74.503 83.698,-75.815M-88.744,-73.33C-88.867,-74.43 -89.309,-75.352 -89.707,-75.344C-90.456,-75.281 -90.239,-72.5 -89.428,-71.759C-89.003,-71.371 -88.677,-71.927 -88.717,-72.972C-88.721,-73.08 -88.732,-73.223 -88.744,-73.33M79.41,-59.717C79.755,-60.721 79.757,-61.8 79.209,-61.745C78.167,-61.445 77.56,-58.531 78.144,-58.229C78.492,-58.049 79.072,-58.73 79.41,-59.717M-84.009,-57.602C-84.283,-58.685 -84.904,-59.619 -85.337,-59.601C-86.049,-59.508 -85.45,-56.951 -84.545,-56.224C-84.079,-55.85 -83.802,-56.241 -83.915,-57.114C-83.932,-57.251 -83.971,-57.452 -84.009,-57.602M72.178,-45.436C72.567,-46.221 72.817,-47.334 72.121,-47.229C70.94,-46.754 69.995,-44.194 70.65,-43.95C71.012,-43.814 71.712,-44.495 72.178,-45.436M-76.351,-43.569C-76.735,-44.453 -77.474,-45.38 -77.962,-45.351C-78.687,-45.215 -77.792,-42.934 -76.735,-42.222C-76.177,-41.846 -75.999,-42.244 -76.112,-42.831C-76.153,-43.042 -76.242,-43.317 -76.351,-43.569M62.452,-32.838C62.978,-33.596 63.345,-34.646 62.632,-34.564C61.426,-34.196 60.161,-31.867 60.738,-31.567C61.068,-31.394 61.853,-31.976 62.452,-32.838M-66.341,-31.271C-66.816,-32.104 -67.711,-33.008 -68.237,-32.971C-68.757,-32.852 -68.311,-31.693 -67.354,-30.674C-67.354,-30.675 -67.355,-30.676 -67.356,-30.676C-66.371,-29.714 -66.004,-29.918 -65.998,-30.29C-65.996,-30.4 -66.025,-30.717 -66.341,-31.271M51.282,-22.482C51.839,-23.15 52.24,-24.042 51.544,-23.981C50.367,-23.709 48.866,-21.632 49.368,-21.291C49.675,-21.083 50.587,-21.651 51.282,-22.482M-55.025,-21.217C-55.572,-21.954 -56.494,-22.724 -57.031,-22.682C-57.725,-22.495 -56.466,-20.793 -55.352,-20.177C-54.797,-19.871 -54.483,-19.962 -54.588,-20.399C-54.64,-20.614 -54.799,-20.912 -55.025,-21.217M39.582,-14.266C40.297,-14.973 40.499,-15.621 40.006,-15.626C39.983,-15.626 39.952,-15.622 39.929,-15.621C38.814,-15.429 37.288,-13.667 37.71,-13.325C37.975,-13.111 38.866,-13.559 39.582,-14.266M-43.386,-13.325C-43.861,-13.899 -44.394,-14.234 -44.569,-14.344C-44.569,-14.345 -44.57,-14.346 -44.571,-14.346C-44.968,-14.574 -45.202,-14.652 -45.434,-14.632C-45.991,-14.468 -45.181,-13.337 -43.989,-12.616L-43.991,-12.616C-43.009,-12.072 -42.92,-12.445 -43.01,-12.717C-43.041,-12.813 -43.132,-13.018 -43.386,-13.325M28.634,-8.394C29.27,-8.987 29.409,-9.496 28.938,-9.505C28.92,-9.506 28.896,-9.503 28.878,-9.503C27.869,-9.376 26.444,-7.899 26.789,-7.566C27.021,-7.341 27.952,-7.759 28.634,-8.394M-32.598,-7.729C-33.031,-8.201 -33.905,-8.843 -34.492,-8.793C-35.075,-8.611 -34.126,-7.6 -33.244,-7.116C-32.539,-6.73 -32.083,-6.757 -32.227,-7.178C-32.258,-7.266 -32.346,-7.454 -32.598,-7.729M18.857,-4.286C19.368,-4.745 19.582,-5.266 19.069,-5.281C19.057,-5.281 19.039,-5.28 19.027,-5.28C18.131,-5.2 16.905,-3.961 17.218,-3.639C17.429,-3.422 18.256,-3.748 18.857,-4.286M-23.067,-3.854C-23.181,-3.991 -23.608,-4.461 -24.314,-4.735C-24.313,-4.734 -24.313,-4.734 -24.312,-4.733C-24.577,-4.824 -24.668,-4.816 -24.794,-4.804C-25.362,-4.617 -24.542,-3.744 -23.744,-3.344C-23.614,-3.279 -23.513,-3.242 -23.432,-3.211L-23.431,-3.21C-22.893,-3.038 -22.675,-3.204 -22.899,-3.614C-22.923,-3.657 -22.989,-3.759 -23.067,-3.854M10.703,-1.747C11.125,-2.2 11.094,-2.59 10.635,-2.581C9.815,-2.534 8.902,-1.489 9.232,-1.167C9.465,-0.941 10.234,-1.244 10.703,-1.747M-15.125,-1.5C-15.4,-1.904 -16.004,-2.327 -16.502,-2.305C-17.024,-2.229 -16.751,-1.627 -16.171,-1.205C-15.597,-0.788 -14.917,-0.674 -14.972,-1.141C-14.988,-1.28 -15.075,-1.425 -15.125,-1.5M3.828,-0.296C4.109,-0.715 3.958,-1.092 3.512,-1.088C2.777,-1.067 2.229,-0.205 2.566,0.147C2.853,0.445 3.531,0.145 3.828,-0.296M-8.394,-0.191C-8.499,-0.584 -8.959,-0.989 -9.475,-0.965C-10.044,-0.883 -9.939,-0.265 -9.447,0.119C-8.918,0.533 -8.335,0.43 -8.373,-0.071C-8.375,-0.107 -8.384,-0.156 -8.394,-0.191M-2.268,0.148C-2.213,-0.188 -2.43,-0.558 -2.941,-0.582L-2.947,-0.582C-3.643,-0.542 -3.846,0.159 -3.425,0.541C-3.242,0.708 -3.051,0.717 -2.96,0.721L-2.953,0.721C-2.365,0.689 -2.272,0.17 -2.268,0.148" style="fill:rgb(169,57,17);fill-rule:nonzero;"/>
                        </g>
                        <g transform="matrix(0.775509,0,0,0.775509,149.953,165.268)">
                            <path d="M0,-184.205C0.005,-184.371 -0.138,-184.593 -0.422,-184.582C-0.793,-184.532 -0.9,-184.14 -0.672,-183.956C-0.571,-183.873 -0.454,-183.868 -0.404,-183.865L-0.403,-183.865C-0.092,-183.879 -0.004,-184.094 0,-184.205M-3.624,-184.016C-3.459,-184.204 -3.427,-184.407 -3.662,-184.405C-4.087,-184.396 -4.705,-183.861 -4.489,-183.69C-4.34,-183.571 -3.894,-183.708 -3.624,-184.016M3.64,-183.975C3.478,-184.178 3.112,-184.397 2.845,-184.385C2.567,-184.343 2.751,-184.011 3.018,-183.817C3.388,-183.549 3.767,-183.583 3.727,-183.807C3.718,-183.856 3.686,-183.917 3.64,-183.975M-8.061,-183.298C-7.754,-183.502 -7.534,-183.737 -7.698,-183.778C-7.706,-183.78 -7.723,-183.784 -7.766,-183.783C-8.274,-183.76 -9.318,-183.132 -9.162,-182.943C-9.059,-182.818 -8.524,-182.99 -8.061,-183.298M8.065,-183.299C7.751,-183.521 7.216,-183.759 6.949,-183.747C6.72,-183.71 6.999,-183.451 7.2,-183.304C7.756,-182.896 8.393,-182.746 8.373,-182.959C8.37,-182.998 8.332,-183.111 8.065,-183.299M-13.938,-181.941C-13.515,-182.192 -13.18,-182.472 -13.358,-182.52C-13.38,-182.527 -13.411,-182.526 -13.434,-182.525C-14.059,-182.481 -15.53,-181.653 -15.308,-181.47C-15.18,-181.364 -14.54,-181.585 -13.938,-181.941M14.078,-181.895C13.679,-182.147 12.92,-182.494 12.593,-182.462C12.342,-182.349 13.25,-181.757 13.884,-181.51C14.342,-181.331 14.617,-181.339 14.511,-181.526C14.473,-181.594 14.336,-181.731 14.078,-181.895M-21.666,-179.62C-21.171,-179.924 -20.753,-180.276 -20.953,-180.329C-20.979,-180.336 -21.015,-180.335 -21.042,-180.334C-21.791,-180.258 -23.557,-179.216 -23.292,-179.006C-23.147,-178.891 -22.387,-179.178 -21.666,-179.62M21.992,-179.496C21.491,-179.827 20.57,-180.268 20.209,-180.233C19.902,-180.099 21.127,-179.304 21.895,-179.007C22.359,-178.828 22.618,-178.834 22.525,-179.022C22.47,-179.134 22.271,-179.311 21.992,-179.496M-31.221,-175.977C-30.676,-176.352 -30.221,-176.782 -30.45,-176.84C-30.479,-176.847 -30.519,-176.845 -30.549,-176.843C-31.377,-176.729 -33.357,-175.409 -33.041,-175.181C-32.868,-175.056 -32.017,-175.428 -31.221,-175.977M31.629,-175.816C31.083,-176.204 30.122,-176.722 29.737,-176.686C29.385,-176.544 30.757,-175.516 31.7,-175.127C32.138,-174.947 32.384,-174.949 32.326,-175.132C32.308,-175.189 32.205,-175.406 31.629,-175.816M-42.328,-170.529C-41.59,-171.107 -41.199,-171.605 -41.436,-171.662C-41.467,-171.67 -41.511,-171.665 -41.543,-171.662C-42.578,-171.466 -44.454,-169.83 -44.127,-169.618C-43.938,-169.495 -43.114,-169.912 -42.328,-170.529M42.766,-170.323C42.104,-170.887 41.139,-171.467 40.758,-171.431C40.329,-171.27 41.921,-169.904 42.908,-169.471C43.313,-169.293 43.527,-169.318 43.454,-169.534C43.432,-169.601 43.316,-169.855 42.766,-170.323M-54.057,-163.093C-53.309,-163.816 -52.949,-164.427 -53.271,-164.425C-53.291,-164.425 -53.319,-164.42 -53.339,-164.418C-54.387,-164.144 -56.23,-162.161 -55.861,-161.953C-55.646,-161.833 -54.82,-162.355 -54.057,-163.093M54.588,-162.724C53.945,-163.405 52.959,-164.138 52.571,-164.101C52.099,-163.934 53.761,-162.208 54.724,-161.72C55.101,-161.53 55.293,-161.564 55.225,-161.811C55.168,-162.021 54.93,-162.362 54.588,-162.724M-65.642,-153.351C-64.983,-154.171 -64.681,-154.857 -64.983,-154.849C-65.006,-154.849 -65.036,-154.841 -65.059,-154.838C-66.093,-154.466 -67.724,-152.192 -67.321,-151.995C-67.093,-151.884 -66.324,-152.504 -65.642,-153.351M66.071,-152.943C65.497,-153.693 64.647,-154.474 64.296,-154.441C63.782,-154.274 65.424,-152.155 66.286,-151.666C66.617,-151.479 66.769,-151.551 66.692,-151.859C66.629,-152.112 66.396,-152.518 66.071,-152.943M-76.011,-141.384C-75.645,-141.975 -75.016,-143.235 -75.532,-143.13C-76.434,-142.682 -77.755,-140.15 -77.363,-139.985C-77.174,-139.906 -76.616,-140.407 -76.011,-141.384M76.274,-140.971C75.804,-141.82 75.077,-142.71 74.744,-142.682C74.261,-142.549 75.613,-140.045 76.425,-139.567C76.766,-139.366 76.788,-139.661 76.695,-140.004C76.625,-140.262 76.471,-140.615 76.274,-140.971M-84.141,-127.679C-83.88,-128.309 -83.459,-129.646 -83.909,-129.518C-84.197,-129.316 -84.435,-128.911 -84.727,-128.323C-84.728,-128.321 -84.729,-128.318 -84.73,-128.316C-85.364,-126.931 -85.47,-125.954 -85.111,-126.127C-84.909,-126.224 -84.511,-126.788 -84.141,-127.679M84.296,-127.13C83.925,-128.165 83.36,-129.055 83.087,-129.036C82.506,-128.86 83.852,-125.852 84.351,-125.62C84.673,-125.471 84.648,-126.148 84.296,-127.13M-89.577,-112.427C-89.393,-113.244 -89.274,-114.379 -89.586,-114.343C-90.312,-113.931 -90.652,-110.743 -90.342,-110.706C-90.111,-110.679 -89.772,-111.559 -89.577,-112.427M89.598,-111.723C89.406,-112.824 89.003,-113.816 88.753,-113.805C88.263,-113.692 88.848,-110.579 89.433,-110.184C89.7,-110.004 89.775,-110.709 89.598,-111.723M-91.966,-95.863C-91.909,-96.754 -91.968,-98.05 -92.276,-98C-92.468,-97.854 -92.615,-97.176 -92.67,-96.185L-92.67,-96.181C-92.71,-95.084 -92.603,-94.314 -92.399,-94.219L-92.386,-94.219C-92.133,-94.284 -92.003,-95.283 -91.966,-95.863M91.81,-95.398C91.79,-96.504 91.58,-97.437 91.352,-97.434C90.702,-97.229 91.11,-93.792 91.439,-93.641C91.45,-93.636 91.466,-93.635 91.478,-93.632L91.49,-93.632C91.766,-93.745 91.821,-94.795 91.81,-95.398M-91.046,-79.172C-91.17,-80.283 -91.471,-81.251 -91.691,-81.244C-92.148,-81.145 -91.721,-77.743 -91.225,-77.529C-91.012,-77.438 -90.933,-78.159 -91.046,-79.172M90.786,-78.63C90.924,-79.479 90.972,-80.714 90.637,-80.668C89.935,-80.24 89.778,-76.756 90.095,-76.731C90.353,-76.711 90.633,-77.631 90.765,-78.508C90.772,-78.549 90.779,-78.589 90.786,-78.63M-86.946,-63.346C-87.254,-64.4 -87.715,-65.277 -87.952,-65.263C-88.417,-65.139 -87.523,-62.119 -86.912,-61.75C-86.665,-61.601 -86.641,-62.142 -86.855,-63.008C-86.88,-63.11 -86.917,-63.245 -86.946,-63.346M86.51,-62.528C86.856,-63.511 87.011,-64.567 86.678,-64.512C86.068,-64.237 85.079,-61.111 85.564,-60.991C85.772,-60.939 86.187,-61.615 86.51,-62.528M-79.888,-48.721C-80.306,-49.636 -80.999,-50.64 -81.298,-50.616C-81.771,-50.489 -80.373,-47.613 -79.707,-47.342C-79.376,-47.208 -79.513,-47.856 -79.818,-48.566C-79.839,-48.613 -79.866,-48.675 -79.888,-48.721M79.48,-48.204C79.879,-48.96 80.255,-50.028 79.796,-49.923C78.915,-49.425 77.763,-46.811 78.171,-46.665C78.373,-46.593 78.948,-47.195 79.48,-48.204M-70.474,-36.014C-71.026,-36.851 -71.844,-37.727 -72.182,-37.697C-72.647,-37.549 -71.063,-35.178 -70.21,-34.746C-69.965,-34.621 -69.873,-34.722 -69.96,-35.023C-69.992,-35.136 -70.107,-35.459 -70.474,-36.014M69.965,-35.464C70.672,-36.412 70.875,-37.108 70.584,-37.096C70.559,-37.095 70.527,-37.087 70.502,-37.083C69.53,-36.685 68.005,-34.291 68.408,-34.116C68.634,-34.019 69.347,-34.636 69.965,-35.464M-59.32,-25.275C-59.96,-26.006 -60.876,-26.772 -61.238,-26.737C-61.738,-26.557 -59.909,-24.58 -59.003,-24.142C-58.857,-24.072 -58.532,-23.946 -58.652,-24.297C-58.763,-24.619 -59.156,-25.088 -59.32,-25.275M58.705,-24.735C59.48,-25.524 59.864,-26.238 59.509,-26.233C59.485,-26.233 59.455,-26.226 59.432,-26.223C58.428,-25.921 56.617,-23.784 56.987,-23.59C57.199,-23.479 57.986,-24.003 58.705,-24.735M-47.487,-16.785C-48.062,-17.304 -49.052,-18.017 -49.455,-17.977C-49.915,-17.802 -48.152,-16.248 -47.164,-15.829C-46.83,-15.687 -46.673,-15.711 -46.733,-15.895C-46.794,-16.082 -47.076,-16.414 -47.487,-16.785M46.926,-16.413C47.674,-17.042 48.027,-17.595 47.682,-17.597C47.662,-17.597 47.635,-17.593 47.615,-17.591C46.608,-17.37 44.723,-15.596 45.055,-15.394C45.252,-15.274 46.161,-15.769 46.926,-16.413M-35.904,-10.425C-36.475,-10.867 -37.513,-11.502 -37.924,-11.462C-38.306,-11.308 -36.933,-10.25 -35.886,-9.792C-35.422,-9.59 -35.172,-9.573 -35.234,-9.749C-35.282,-9.885 -35.532,-10.137 -35.904,-10.425M35.404,-10.193C36.116,-10.685 36.494,-11.132 36.246,-11.191C36.213,-11.199 36.168,-11.195 36.135,-11.193C35.215,-11.044 33.337,-9.586 33.609,-9.397C33.773,-9.283 34.645,-9.67 35.404,-10.193M-25.587,-6.048C-26.128,-6.408 -27.061,-6.899 -27.441,-6.862C-27.763,-6.724 -26.587,-5.927 -25.617,-5.546C-25.163,-5.368 -24.902,-5.339 -24.935,-5.47C-24.956,-5.553 -25.138,-5.749 -25.587,-6.048M25.053,-5.854C25.73,-6.254 26.094,-6.625 25.865,-6.682C25.836,-6.689 25.794,-6.687 25.764,-6.686C24.971,-6.591 23.215,-5.415 23.42,-5.243C23.545,-5.139 24.354,-5.442 25.053,-5.854M-16.989,-3.171C-17.298,-3.361 -18.189,-3.843 -18.59,-3.803C-18.882,-3.671 -17.867,-3.07 -17.09,-2.782C-16.737,-2.651 -16.349,-2.554 -16.416,-2.713C-16.453,-2.801 -16.678,-2.981 -16.989,-3.171M16.541,-3.066C17.073,-3.366 17.341,-3.64 17.15,-3.689C17.124,-3.696 17.087,-3.695 17.06,-3.694C16.372,-3.635 14.88,-2.707 15.045,-2.55C15.151,-2.451 15.919,-2.716 16.541,-3.066M-10.267,-1.372C-10.399,-1.46 -10.872,-1.757 -11.381,-1.89L-11.38,-1.89C-11.518,-1.922 -11.552,-1.918 -11.627,-1.911C-11.883,-1.794 -11.149,-1.345 -10.534,-1.113C-10.187,-0.983 -9.842,-0.909 -9.905,-1.055C-9.939,-1.134 -10.114,-1.27 -10.267,-1.372M9.88,-1.325C10.308,-1.569 10.506,-1.795 10.332,-1.841C10.308,-1.847 10.275,-1.848 10.251,-1.847C9.7,-1.814 8.548,-1.071 8.69,-0.936C8.781,-0.848 9.393,-1.048 9.88,-1.325M-5.419,-0.417C-5.637,-0.61 -6.081,-0.875 -6.387,-0.86C-6.606,-0.825 -6.469,-0.627 -6.22,-0.449C-5.828,-0.169 -5.198,0.04 -5.224,-0.161C-5.232,-0.221 -5.303,-0.315 -5.419,-0.417M5.028,-0.372C5.322,-0.58 5.414,-0.774 5.238,-0.815C5.228,-0.817 5.208,-0.821 5.163,-0.821C4.714,-0.805 4.005,-0.233 4.137,-0.079C4.232,0.032 4.714,-0.151 5.028,-0.372M-1.783,-0.003C-1.856,-0.2 -2.108,-0.404 -2.386,-0.391C-2.699,-0.344 -2.615,-0.034 -2.323,0.171C-2.015,0.388 -1.718,0.33 -1.765,0.063C-1.768,0.043 -1.776,0.017 -1.783,-0.003M1.429,0.036C1.577,-0.182 1.488,-0.38 1.242,-0.379C0.851,-0.373 0.591,0.055 0.777,0.25C0.844,0.32 0.936,0.317 0.971,0.316L0.97,0.317C1.25,0.288 1.411,0.062 1.429,0.036" style="fill:rgb(169,57,17);fill-rule:nonzero;"/>
                        </g>
                        <g transform="matrix(0.775509,0,0,0.775509,149.598,166.528)">
                            <path d="M0,-187.572C0.024,-187.577 0.057,-187.58 0.081,-187.582L0.036,-187.582L0.002,-187.581C-0.064,-187.576 -0.188,-187.566 -0.197,-187.539C-0.192,-187.537 -0.184,-187.536 -0.178,-187.535L-0.174,-187.535C-0.115,-187.54 -0.058,-187.559 0,-187.572M0.46,-187.571C0.407,-187.577 0.336,-187.58 0.282,-187.582L0.238,-187.582L0.282,-187.58C0.35,-187.573 0.358,-187.572 0.436,-187.555C0.533,-187.534 0.597,-187.52 0.612,-187.532C0.591,-187.555 0.474,-187.569 0.46,-187.571M-0.838,-187.533C-0.751,-187.544 -0.634,-187.559 -0.493,-187.569C-0.478,-187.57 -0.457,-187.572 -0.442,-187.573C-0.435,-187.573 -0.427,-187.574 -0.42,-187.574C-0.399,-187.575 -0.376,-187.557 -0.356,-187.578C-0.764,-187.572 -1.288,-187.504 -1.349,-187.469C-1.339,-187.466 -1.339,-187.466 -0.838,-187.533M1.541,-187.513C1.204,-187.557 0.893,-187.569 0.874,-187.569C1.946,-187.429 1.946,-187.429 1.953,-187.434C1.897,-187.462 1.668,-187.497 1.541,-187.513M-2.954,-187.348C-2.702,-187.391 -2.447,-187.419 -2.195,-187.472C-2.197,-187.473 -2.198,-187.474 -2.2,-187.474C-2.541,-187.461 -3.747,-187.285 -3.801,-187.218C-3.748,-187.211 -3.733,-187.214 -2.954,-187.348M4.118,-187.271C3.632,-187.36 3.09,-187.423 3.051,-187.416C3.061,-187.412 4.595,-187.106 4.733,-187.118C4.658,-187.168 4.315,-187.235 4.118,-187.271M-7.024,-186.806C-6.171,-187.004 -6.112,-187.025 -6.06,-187.043C-6.062,-187.046 -6.064,-187.049 -6.066,-187.052L-6.076,-187.052C-6.394,-187.034 -7.961,-186.728 -8.194,-186.586C-8.162,-186.569 -8.124,-186.55 -7.024,-186.806M8.787,-186.608C8.182,-186.76 7.438,-186.897 7.345,-186.884C7.466,-186.813 9.359,-186.332 9.54,-186.355C9.496,-186.418 9.106,-186.528 8.787,-186.608M-13.374,-185.607C-12.92,-185.746 -12.359,-185.926 -12.265,-185.993C-12.277,-185.999 -12.294,-186.005 -12.307,-186.004C-12.745,-185.967 -14.672,-185.441 -14.833,-185.256C-14.831,-185.253 -14.828,-185.249 -14.826,-185.245C-14.665,-185.225 -13.948,-185.431 -13.374,-185.607M15.779,-185.202C15.075,-185.438 14.172,-185.669 14.021,-185.65C14.078,-185.542 15.636,-185.037 16.246,-184.881C16.247,-184.881 16.248,-184.881 16.249,-184.88C16.566,-184.803 16.608,-184.814 16.626,-184.834C16.562,-184.932 15.962,-185.14 15.779,-185.202M-21.961,-183.391C-21.625,-183.525 -20.836,-183.847 -20.772,-183.953C-20.79,-183.96 -20.817,-183.967 -20.837,-183.965C-21.409,-183.895 -23.568,-183.093 -23.639,-182.877C-23.546,-182.792 -22.54,-183.16 -21.961,-183.391M24.948,-182.677C24.221,-182.997 23.172,-183.363 22.959,-183.337C22.956,-183.333 22.951,-183.329 22.948,-183.326C23.035,-183.108 25.677,-182.047 25.832,-182.167C25.814,-182.288 25.151,-182.588 24.948,-182.677M-32.393,-179.773C-32.194,-179.875 -31.201,-180.39 -31.183,-180.532C-31.199,-180.545 -31.203,-180.549 -31.264,-180.544C-31.916,-180.432 -34.219,-179.323 -34.201,-179.066C-34.058,-178.967 -32.956,-179.485 -32.393,-179.773M35.68,-178.721C34.93,-179.135 33.925,-179.577 33.703,-179.549C33.698,-179.546 33.692,-179.541 33.687,-179.538C33.676,-179.297 36.491,-177.839 36.699,-177.977C36.727,-178.138 35.788,-178.662 35.68,-178.721M-44.176,-174.28C-43.424,-174.765 -42.727,-175.299 -42.864,-175.354C-42.884,-175.362 -42.915,-175.355 -42.936,-175.352C-43.125,-175.306 -43.335,-175.209 -43.656,-175.045C-43.657,-175.045 -43.658,-175.044 -43.659,-175.043C-45.009,-174.325 -46.026,-173.503 -45.851,-173.433C-45.725,-173.382 -45.004,-173.747 -44.176,-174.28M47.539,-172.829C46.791,-173.363 45.785,-173.938 45.558,-173.908C45.284,-173.728 47.961,-171.978 48.425,-171.89C48.571,-171.862 48.536,-171.947 48.481,-172.023C48.434,-172.088 48.227,-172.338 47.539,-172.829M-56.223,-166.739C-55.354,-167.466 -54.807,-168.056 -55.004,-168.055C-55.019,-168.055 -55.039,-168.049 -55.053,-168.047C-55.265,-167.972 -55.505,-167.818 -55.873,-167.56L-55.874,-167.56C-57.158,-166.628 -57.984,-165.739 -57.823,-165.675C-57.696,-165.625 -57.008,-166.082 -56.223,-166.739M59.574,-164.738C58.861,-165.401 57.907,-166.121 57.696,-166.09C57.407,-165.897 59.945,-163.738 60.402,-163.611C60.514,-163.581 60.531,-163.633 60.453,-163.768C60.335,-163.973 60.006,-164.336 59.574,-164.738M-67.826,-156.844C-67.069,-157.683 -66.566,-158.386 -66.729,-158.38C-66.744,-158.38 -66.762,-158.372 -66.776,-158.368C-67.486,-157.993 -69.346,-155.81 -69.254,-155.578C-69.051,-155.491 -67.876,-156.789 -67.826,-156.844M70.889,-154.297C70.262,-155.077 69.429,-155.927 69.253,-155.897C69.082,-155.698 71.305,-153.031 71.657,-153.015C71.771,-153.01 71.58,-153.329 71.517,-153.433C71.509,-153.447 71.317,-153.766 70.889,-154.297M-77.9,-144.86C-77.569,-145.368 -76.952,-146.373 -76.991,-146.54C-77.007,-146.536 -77.028,-146.532 -77.044,-146.529C-77.549,-146.113 -79.095,-143.701 -79.038,-143.419C-79.034,-143.417 -79.029,-143.414 -79.024,-143.412C-78.788,-143.513 -78.047,-144.636 -77.9,-144.86M80.434,-141.845C79.876,-142.813 79.261,-143.675 79.144,-143.652C78.997,-143.474 80.707,-140.606 81.05,-140.456C81.055,-140.46 81.063,-140.466 81.069,-140.47C81.096,-140.682 80.545,-141.652 80.434,-141.845M-85.762,-131.058C-85.558,-131.528 -85.04,-132.77 -85.096,-132.867C-85.099,-132.865 -85.104,-132.863 -85.107,-132.861C-85.377,-132.585 -86.642,-129.626 -86.563,-129.457C-86.408,-129.582 -85.869,-130.812 -85.762,-131.058M87.593,-127.782C87.332,-128.466 86.875,-129.565 86.76,-129.602C86.671,-129.377 87.898,-126.211 88.1,-126.145C88.154,-126.248 87.807,-127.223 87.593,-127.782M-91.034,-115.729C-90.871,-116.413 -90.629,-117.483 -90.629,-117.631C-90.632,-117.629 -90.635,-117.628 -90.638,-117.626C-90.771,-117.319 -91.513,-114.175 -91.492,-114.009C-91.445,-114.092 -91.305,-114.608 -91.078,-115.545C-91.065,-115.6 -91.047,-115.674 -91.034,-115.729M92.335,-111.349C92.223,-111.949 92.106,-112.547 91.983,-113.144L91.956,-113.263C91.835,-113.807 91.771,-114.049 91.74,-114.075C91.704,-113.738 92.328,-110.686 92.452,-110.418C92.462,-110.447 92.486,-110.515 92.335,-111.349M-93.482,-99.093C-93.427,-100.038 -93.371,-101.132 -93.375,-101.251C-93.376,-101.248 -93.377,-101.245 -93.378,-101.242C-93.382,-101.2 -93.385,-101.158 -93.389,-101.116C-93.476,-99.948 -93.543,-98.776 -93.588,-97.6L-93.588,-97.574C-93.589,-97.547 -93.59,-97.51 -93.591,-97.483L-93.59,-97.464C-93.567,-97.63 -93.496,-98.85 -93.482,-99.093M93.935,-93.928C93.935,-95.108 93.913,-96.284 93.87,-97.457L93.869,-97.469C93.867,-97.48 93.865,-97.496 93.86,-97.507C93.798,-97.195 93.869,-94.011 93.921,-93.704L93.926,-93.695C93.929,-93.708 93.932,-93.726 93.934,-93.74C93.935,-93.806 93.935,-93.867 93.935,-93.928M-92.897,-82.229C-92.911,-82.342 -92.929,-82.493 -92.943,-82.607L-92.943,-82.61C-93.064,-83.604 -93.157,-84.302 -93.174,-84.349C-93.174,-84.314 -93.174,-84.3 -93.153,-84.1C-93.042,-83.016 -92.912,-81.937 -92.763,-80.862L-92.757,-80.816C-92.747,-80.751 -92.739,-80.685 -92.726,-80.621C-92.717,-80.695 -92.843,-81.77 -92.897,-82.229M92.441,-77.088C92.632,-78.151 92.805,-79.219 92.96,-80.292L92.966,-80.345C92.988,-80.538 92.992,-80.599 92.99,-80.657L92.979,-80.657C92.863,-80.353 92.325,-77.035 92.339,-76.712C92.355,-76.73 92.377,-76.753 92.441,-77.088M-89.372,-66.136C-89.612,-66.934 -89.979,-68.078 -90.042,-68.124C-90.058,-67.917 -89.131,-64.868 -88.965,-64.578C-88.927,-64.636 -89.237,-65.687 -89.372,-66.136M88.524,-62.482C88.809,-63.279 89.111,-64.228 89.109,-64.418C89.103,-64.421 89.095,-64.424 89.089,-64.427C88.862,-64.151 87.812,-61.148 87.867,-60.933C87.996,-61.027 88.402,-62.142 88.524,-62.482M-83.091,-51.307C-83.1,-51.324 -83.931,-52.994 -84.145,-53.135C-84.147,-53.134 -84.149,-53.134 -84.15,-53.134C-84.224,-52.934 -82.733,-49.993 -82.471,-49.822C-82.409,-49.923 -82.977,-51.077 -83.091,-51.307M81.684,-47.958C82.138,-48.753 82.58,-49.656 82.532,-49.789C82.516,-49.785 82.496,-49.779 82.481,-49.775C81.969,-49.273 80.634,-46.761 80.702,-46.548C80.897,-46.603 81.503,-47.641 81.684,-47.958M-74.342,-38.127C-74.922,-38.936 -75.629,-39.792 -75.76,-39.766C-75.908,-39.551 -73.964,-36.903 -73.547,-36.751C-73.542,-36.753 -73.536,-36.757 -73.531,-36.759C-73.498,-36.938 -74.201,-37.93 -74.342,-38.127M72.44,-35.149C72.948,-35.772 73.617,-36.706 73.511,-36.831C73.493,-36.828 73.468,-36.823 73.45,-36.819C72.874,-36.461 71.022,-34.084 71.172,-33.896C71.451,-33.952 72.277,-34.949 72.44,-35.149M-63.562,-26.842C-64.27,-27.571 -65.108,-28.307 -65.283,-28.277C-65.497,-28.112 -63.005,-25.614 -62.616,-25.604C-62.612,-25.604 -62.605,-25.606 -62.601,-25.607C-62.508,-25.746 -63.385,-26.66 -63.562,-26.842M61.423,-24.442C62.275,-25.234 62.71,-25.821 62.529,-25.817C62.513,-25.817 62.492,-25.81 62.477,-25.807C61.673,-25.471 59.603,-23.337 59.806,-23.257C59.936,-23.207 60.677,-23.749 61.423,-24.442M-51.518,-17.704C-52.186,-18.238 -53.286,-19.012 -53.525,-18.977C-53.806,-18.778 -51.165,-16.89 -50.679,-16.78C-50.593,-16.76 -50.571,-16.785 -50.611,-16.855C-50.689,-16.994 -51.037,-17.319 -51.518,-17.704M49.396,-15.946C50.2,-16.513 50.755,-17.036 50.609,-17.09C50.587,-17.098 50.555,-17.09 50.532,-17.087C49.668,-16.839 47.451,-15.081 47.671,-14.999C47.804,-14.949 48.611,-15.391 49.396,-15.946M-39.459,-10.984C-40.166,-11.42 -41.272,-12.019 -41.518,-11.986C-41.523,-11.983 -41.53,-11.978 -41.535,-11.975C-41.578,-11.704 -38.799,-10.11 -38.501,-10.234C-38.496,-10.236 -38.491,-10.241 -38.487,-10.244C-38.479,-10.367 -39.164,-10.803 -39.459,-10.984M37.392,-9.701C38.025,-10.045 38.695,-10.476 38.67,-10.61C38.647,-10.626 38.636,-10.627 38.576,-10.622C37.935,-10.491 35.63,-9.205 35.641,-8.984C35.75,-8.903 36.634,-9.29 37.392,-9.701M-28.093,-6.267C-28.766,-6.588 -29.853,-7.055 -30.091,-7.025C-30.095,-7.021 -30.101,-7.016 -30.106,-7.013C-30.074,-6.762 -27.269,-5.533 -27.104,-5.698C-27.138,-5.799 -27.738,-6.098 -28.093,-6.267M26.236,-5.392C26.672,-5.574 27.5,-5.954 27.518,-6.089C27.5,-6.104 27.496,-6.107 27.435,-6.103C26.89,-6.023 24.649,-5.054 24.58,-4.869C24.659,-4.792 25.61,-5.129 26.236,-5.392M-18.188,-3.2C-18.349,-3.259 -19.764,-3.774 -20.014,-3.742C-20.016,-3.739 -20.02,-3.734 -20.023,-3.731C-19.891,-3.505 -17.498,-2.742 -17.224,-2.778C-17.235,-2.804 -17.257,-2.859 -18.188,-3.2M16.677,-2.651C17.071,-2.777 17.835,-3.045 17.906,-3.157C17.895,-3.171 17.893,-3.173 17.841,-3.171C17.384,-3.122 15.345,-2.422 15.209,-2.295C15.328,-2.24 16.415,-2.568 16.677,-2.651M-10.331,-1.399C-11.721,-1.783 -11.848,-1.766 -11.889,-1.761C-11.763,-1.58 -9.554,-1.099 -9.428,-1.118C-9.466,-1.144 -9.506,-1.17 -10.331,-1.399M9.367,-1.119C9.455,-1.141 10.23,-1.333 10.364,-1.431C10.352,-1.437 10.336,-1.444 10.323,-1.443C10.011,-1.419 8.226,-0.949 8.051,-0.872C8.091,-0.835 8.926,-1.011 9.367,-1.119M-4.82,-0.483C-5.688,-0.658 -5.95,-0.711 -6.042,-0.703C-5.84,-0.582 -4.298,-0.328 -4.044,-0.318C-4.087,-0.335 -4.087,-0.335 -4.82,-0.483M4.289,-0.353C4.593,-0.406 4.994,-0.487 5.122,-0.541C5.118,-0.545 5.11,-0.551 5.104,-0.551C4.921,-0.541 3.31,-0.22 3.301,-0.218C3.348,-0.212 3.844,-0.275 4.289,-0.353M-1.52,-0.101C-1.695,-0.125 -1.869,-0.151 -2.043,-0.178C-2.292,-0.216 -2.387,-0.23 -2.428,-0.228C-2.375,-0.179 -1.402,-0.055 -0.989,-0.036C-1.165,-0.07 -1.344,-0.077 -1.52,-0.101M1.447,-0.064C1.79,-0.103 2.011,-0.147 2.052,-0.164C2.049,-0.165 2.045,-0.168 2.042,-0.168C2.033,-0.167 2.023,-0.166 2.014,-0.166L2.007,-0.165C1.609,-0.12 1.214,-0.051 0.815,-0.012C0.83,-0.012 1.115,-0.026 1.447,-0.064M-0.151,-0.002C-0.274,-0.013 -0.375,-0.027 -0.492,-0.043C-0.597,-0.058 -0.622,-0.061 -0.639,-0.06C-0.615,-0.043 -0.289,0.01 0.146,0.01L0.144,0.01C0.079,0.01 -0.023,0.009 -0.151,-0.002M0.337,0.004C0.501,-0.007 0.62,-0.029 0.643,-0.04C0.641,-0.041 0.639,-0.043 0.637,-0.043C0.614,-0.042 0.572,-0.035 0.514,-0.026C0.384,-0.005 0.282,0.01 0.146,0.01L0.162,0.01C0.185,0.01 0.256,0.009 0.337,0.004M0.143,0.01C0.14,0.008 0.137,0.006 0.135,0.004C0.123,-0.007 0.102,-0.02 0.072,-0.022L0.067,-0.022C0.047,-0.018 0.06,-0.008 0.063,-0.007C0.075,0.001 0.107,0.01 0.146,0.01L0.143,0.01" style="fill:rgb(169,57,17);fill-rule:nonzero;"/>
                        </g>
                        <g transform="matrix(0.775509,0,0,0.775509,150.41,156.538)">
                            <path d="M0,-161.022C0.042,-161.576 -0.347,-162.379 -1.345,-162.426L-1.348,-162.426C-2.661,-162.364 -3.133,-160.963 -2.38,-160.217C-1.554,-159.398 -0.086,-159.895 0,-161.022M7.528,-160.472C7.435,-161.203 6.677,-161.989 5.738,-161.946C4.533,-161.778 4.519,-160.361 5.447,-159.656C6.419,-158.919 7.663,-159.406 7.528,-160.472M-7.591,-160.554C-7.388,-161.306 -7.851,-161.935 -8.603,-161.929C-9.872,-161.896 -10.825,-160.263 -10,-159.536C-9.275,-158.897 -7.879,-159.487 -7.591,-160.554M15.265,-158.972C14.987,-159.714 14.091,-160.483 13.2,-160.444C12.056,-160.29 12.298,-158.846 13.334,-158.08C14.291,-157.373 15.513,-157.575 15.342,-158.693C15.329,-158.779 15.296,-158.891 15.265,-158.972M-15.428,-158.877C-15.043,-159.626 -15.226,-160.416 -16.111,-160.4C-17.522,-160.323 -18.793,-158.433 -17.878,-157.774C-17.224,-157.302 -15.942,-157.88 -15.428,-158.877M23.627,-156.119C23.29,-156.848 22.227,-157.854 21.186,-157.767C19.992,-157.435 20.865,-155.742 22.03,-155.073C23.102,-154.459 23.995,-154.851 23.735,-155.824C23.711,-155.915 23.666,-156.033 23.627,-156.119M-23.743,-156.129C-23.28,-156.907 -23.338,-157.731 -24.239,-157.705C-25.741,-157.578 -27.297,-155.483 -26.374,-154.832C-25.738,-154.383 -24.386,-155.05 -23.743,-156.129M32.601,-152.02C32.178,-152.769 31.064,-153.838 30.015,-153.756C28.906,-153.466 29.728,-151.668 31.074,-150.832C32.158,-150.16 33.036,-150.436 32.848,-151.391C32.81,-151.587 32.726,-151.799 32.601,-152.02M-32.808,-151.843C-32.183,-152.753 -32.154,-153.701 -33.106,-153.661C-34.842,-153.455 -36.366,-151.049 -35.495,-150.464C-34.894,-150.061 -33.563,-150.744 -32.808,-151.843M42.2,-146.17C41.743,-147.041 40.508,-148.26 39.469,-148.185C38.295,-147.901 39.313,-145.782 40.764,-144.89C41.893,-144.196 42.708,-144.575 42.409,-145.655C42.37,-145.799 42.284,-146.01 42.2,-146.17M-42.305,-146.121C-41.784,-146.935 -41.513,-148.111 -42.588,-148.051C-44.383,-147.765 -45.991,-145.032 -45.076,-144.491C-44.443,-144.117 -43.071,-144.925 -42.305,-146.121M51.781,-138.862C51.316,-139.776 50.137,-141.008 49.135,-140.944C47.926,-140.69 48.914,-138.37 50.359,-137.397C51.46,-136.655 52.283,-137.01 52.051,-138.128C52.004,-138.356 51.913,-138.603 51.781,-138.862M-51.992,-138.585C-51.394,-139.552 -51.156,-140.849 -52.265,-140.768C-52.748,-140.669 -53.076,-140.459 -53.513,-140.104C-53.512,-140.106 -53.511,-140.108 -53.51,-140.11C-55.165,-138.616 -55.405,-136.826 -54.306,-136.829C-53.605,-136.832 -52.611,-137.587 -51.992,-138.585M60.906,-129.739C60.453,-130.89 59.295,-132.136 58.357,-132.084C57.098,-131.861 58.009,-129.274 59.426,-128.241C60.496,-127.462 61.315,-127.912 61.081,-129.149C61.05,-129.315 60.978,-129.557 60.906,-129.739M-61.025,-129.615C-60.54,-130.583 -60.346,-131.967 -61.472,-131.862C-63.306,-131.389 -64.628,-128.306 -63.618,-127.717C-62.966,-127.336 -61.706,-128.259 -61.025,-129.615M68.76,-119.263C68.378,-120.449 67.372,-121.693 66.485,-121.653C65.143,-121.466 65.938,-118.543 67.313,-117.491C68.321,-116.721 69.097,-117.272 68.909,-118.626C68.884,-118.807 68.823,-119.069 68.76,-119.263M-68.97,-118.871C-68.568,-119.817 -68.328,-121.525 -69.558,-121.38C-71.354,-120.794 -72.36,-117.556 -71.307,-116.959C-70.664,-116.594 -69.55,-117.505 -68.97,-118.871M74.9,-107.167C74.67,-108.437 73.792,-109.832 72.9,-109.804C71.562,-109.671 71.93,-106.439 73.41,-105.312C74.354,-104.593 75.124,-105.414 74.935,-106.939C74.926,-107.007 74.912,-107.099 74.9,-107.167M-75.031,-106.948C-74.671,-108.233 -74.864,-109.576 -75.804,-109.507C-77.333,-109.18 -78.377,-105.651 -77.183,-104.845C-76.588,-104.443 -75.495,-105.291 -75.031,-106.948M78.731,-94.193C78.603,-95.626 77.853,-96.825 77.092,-96.812C76.421,-96.766 75.865,-95.76 76.157,-93.986L76.159,-93.986C76.607,-91.922 77.816,-91.313 78.426,-92.348C78.681,-92.781 78.795,-93.471 78.731,-94.193M-78.874,-93.677C-78.644,-94.914 -78.88,-96.579 -79.921,-96.487C-81.567,-96.059 -81.836,-92.192 -80.678,-91.608C-79.987,-91.258 -79.144,-92.226 -78.874,-93.677M80.009,-80.401L80.009,-80.508C79.978,-81.978 79.473,-82.976 78.722,-83.05L78.719,-83.05C77.738,-82.948 77.402,-81.405 77.415,-80.393L77.413,-80.29C77.453,-78.158 78.517,-77.223 79.312,-78.055C79.606,-78.363 79.966,-79 80.008,-80.29L80.008,-80.37C80.008,-80.375 80.009,-80.38 80.009,-80.385L80.009,-80.401M-80.07,-79.923C-80.025,-81.027 -80.389,-82.625 -81.343,-82.722L-81.346,-82.722C-82.907,-82.563 -82.955,-78.808 -81.796,-77.838C-81.011,-77.181 -80.14,-78.233 -80.07,-79.923M78.513,-66.139C78.802,-67.539 78.443,-69.041 77.465,-68.956C76.808,-68.79 76.296,-68.038 76.022,-66.839L76.022,-66.835C75.657,-64.765 76.501,-63.586 77.422,-64.183C77.911,-64.501 78.329,-65.25 78.513,-66.139M-78.581,-66.235C-78.725,-67.669 -79.472,-68.871 -80.214,-68.858C-81.558,-68.764 -81.486,-65.297 -80.116,-64.162C-79.211,-63.412 -78.408,-64.496 -78.581,-66.235M74.513,-53.244C74.905,-54.538 74.687,-55.877 73.737,-55.809C72.171,-55.483 71.087,-51.975 72.304,-51.175C72.97,-50.737 74.064,-51.762 74.513,-53.244M-74.497,-53.072C-74.768,-54.508 -75.7,-55.744 -76.491,-55.718C-77.796,-55.585 -77.363,-52.368 -75.889,-51.248C-74.964,-50.545 -74.256,-51.336 -74.46,-52.846C-74.469,-52.914 -74.484,-53.004 -74.497,-53.072M68.201,-41.223C68.72,-42.368 68.803,-43.881 67.608,-43.743C65.838,-43.178 64.787,-39.925 65.83,-39.355C66.469,-39.007 67.599,-39.897 68.201,-41.223M-68.218,-41.279C-68.61,-42.47 -69.616,-43.719 -70.489,-43.679C-71.8,-43.492 -70.936,-40.585 -69.558,-39.54C-68.574,-38.794 -67.862,-39.323 -68.064,-40.65C-68.091,-40.828 -68.155,-41.087 -68.218,-41.279M60.238,-30.828C60.76,-31.804 60.978,-33.198 59.785,-33.089C57.975,-32.629 56.652,-29.535 57.628,-28.983C58.268,-28.621 59.536,-29.518 60.238,-30.828M-60.139,-30.683C-60.61,-31.863 -61.744,-33.091 -62.683,-33.038C-63.952,-32.81 -62.972,-30.272 -61.5,-29.218C-60.504,-28.506 -59.785,-28.827 -59.929,-29.92C-59.951,-30.082 -60.005,-30.345 -60.139,-30.683M51.024,-21.801C51.671,-22.777 51.936,-24.083 50.751,-23.998C49.007,-23.648 47.472,-20.854 48.314,-20.22C48.884,-19.791 50.201,-20.559 51.024,-21.801M-51.013,-21.852C-51.551,-22.91 -52.715,-24.014 -53.658,-23.952C-55.155,-23.633 -53.093,-20.871 -52.696,-20.72L-52.694,-20.72C-51.214,-19.543 -50.591,-20.108 -50.711,-20.967C-50.746,-21.22 -50.859,-21.55 -51.013,-21.852M41.443,-14.584C42.122,-15.568 42.167,-16.584 41.152,-16.528C39.377,-16.249 37.797,-13.555 38.705,-13.021C39.3,-12.67 40.656,-13.444 41.443,-14.584M-41.323,-14.457C-41.793,-15.358 -43.003,-16.564 -44.056,-16.487C-45.257,-16.195 -44.161,-14.128 -42.627,-13.227C-41.521,-12.577 -40.816,-12.917 -41.117,-13.956C-41.158,-14.096 -41.242,-14.302 -41.323,-14.457M31.904,-8.859C32.578,-9.76 32.622,-10.735 31.609,-10.693C29.943,-10.496 28.465,-8.103 29.289,-7.558C29.844,-7.191 31.139,-7.836 31.904,-8.859M-31.9,-8.898C-32.318,-9.656 -33.432,-10.738 -34.493,-10.654C-35.694,-10.335 -34.599,-8.537 -33.294,-7.77C-32.171,-7.111 -31.397,-7.436 -31.701,-8.439C-31.74,-8.568 -31.821,-8.757 -31.9,-8.898M23.077,-4.858C23.602,-5.652 23.529,-6.483 22.583,-6.456C20.981,-6.32 19.719,-4.215 20.54,-3.639C21.114,-3.236 22.418,-3.863 23.077,-4.858M-22.987,-4.748C-23.321,-5.505 -24.358,-6.507 -25.436,-6.416C-26.622,-6.082 -25.655,-4.418 -24.444,-3.765C-23.408,-3.206 -22.651,-3.546 -22.887,-4.465C-22.91,-4.552 -22.951,-4.666 -22.987,-4.748M14.882,-2.072C15.372,-2.909 15.057,-3.63 14.207,-3.615C12.784,-3.538 11.77,-1.74 12.492,-1.093C12.712,-0.896 13.033,-0.847 13.446,-0.948C13.446,-0.949 13.446,-0.949 13.447,-0.95C14.304,-1.215 14.736,-1.823 14.882,-2.072M-14.855,-2.102C-15.112,-2.855 -16.01,-3.635 -16.935,-3.595C-18.059,-3.442 -17.803,-2.149 -16.774,-1.354C-15.733,-0.55 -14.638,-0.814 -14.789,-1.833C-14.801,-1.915 -14.828,-2.023 -14.855,-2.102M7.375,-0.6C7.635,-1.365 7.177,-2.005 6.375,-1.998C5.146,-1.966 4.283,-0.494 5.037,0.284C5.685,0.954 7.018,0.45 7.375,-0.6M-7.264,-0.488C-7.319,-1.233 -8.071,-2.032 -9.063,-1.986C-10.292,-1.813 -10.207,-0.437 -9.2,0.272C-8.258,0.936 -7.191,0.517 -7.264,-0.488M0.083,-0.048C0.171,-0.678 -0.295,-1.521 -1.4,-1.468C-2.713,-1.276 -2.937,0.114 -2.049,0.786C-1.232,1.404 -0.057,0.944 0.083,-0.048" style="fill:rgb(169,57,17);fill-rule:nonzero;"/>
                        </g>
                        <g>
                            <g transform="matrix(0.480357,0,0,0.480357,-499.668,-501.923)">
                                <path d="M1354.68,1131.12C1354.8,1129.6 1353.75,1127.4 1351.06,1127.27L1351.05,1127.27C1347.32,1127.45 1346.23,1131.6 1348.6,1133.55C1349.53,1134.32 1350.55,1134.37 1350.99,1134.39L1351,1134.39C1353.72,1134.26 1354.59,1132.27 1354.68,1131.12" style="fill:rgb(169,57,17);fill-rule:nonzero;"/>
                            </g>
                            <g transform="matrix(0.480357,0,0,0.480357,-499.668,-501.923)">
                                <path d="M1372.05,1132.75C1371.88,1131.05 1370.23,1128.75 1367.56,1128.87C1364.25,1129.33 1364.05,1133.38 1366.52,1135.25C1369.08,1137.17 1372.33,1135.7 1372.05,1132.75" style="fill:rgb(169,57,17);fill-rule:nonzero;"/>
                            </g>
                            <g transform="matrix(0.480357,0,0,0.480357,-499.668,-501.923)">
                                <path d="M1337.07,1132.81C1337.58,1130.69 1336.19,1128.85 1334.09,1128.88C1330.79,1129 1328.61,1133.19 1330.75,1135.28C1332.69,1137.18 1336.35,1135.75 1337.07,1132.81" style="fill:rgb(169,57,17);fill-rule:nonzero;"/>
                            </g>
                            <g transform="matrix(0.480357,0,0,0.480357,-499.668,-501.923)">
                                <path d="M1389.48,1137.88C1389.18,1136.52 1387.46,1133.61 1384.32,1133.86C1380.85,1134.75 1382.02,1139.09 1384.69,1140.69C1387.43,1142.34 1390.11,1140.77 1389.48,1137.88" style="fill:rgb(169,57,17);fill-rule:nonzero;"/>
                            </g>
                            <g transform="matrix(0.480357,0,0,0.480357,-499.668,-501.923)">
                                <path d="M1319.47,1137.96C1320.21,1135.93 1319.39,1133.8 1317.01,1133.86C1313.51,1134.13 1310.91,1138.77 1313.16,1140.75C1313.53,1141.08 1314.59,1141.77 1316.44,1141.09L1316.43,1141.09C1318.31,1140.26 1319.12,1138.93 1319.47,1137.96" style="fill:rgb(169,57,17);fill-rule:nonzero;"/>
                            </g>
                            <g transform="matrix(0.480357,0,0,0.480357,-499.668,-501.923)">
                                <path d="M1407.14,1146.65C1406.61,1144.74 1404.43,1142.19 1401.74,1142.38C1398.5,1143.1 1399.55,1147.74 1402.63,1149.62C1405.46,1151.35 1407.99,1149.68 1407.14,1146.65" style="fill:rgb(169,57,17);fill-rule:nonzero;"/>
                            </g>
                            <g transform="matrix(0.480357,0,0,0.480357,-499.668,-501.923)">
                                <path d="M1301.74,1146.72C1302.64,1144.55 1301.98,1142.3 1299.54,1142.4C1295.51,1142.88 1293.21,1148.17 1295.48,1149.88C1297.27,1151.23 1300.55,1149.57 1301.74,1146.72" style="fill:rgb(169,57,17);fill-rule:nonzero;"/>
                            </g>
                            <g transform="matrix(0.480357,0,0,0.480357,-499.668,-501.923)">
                                <path d="M1424.47,1159.15C1423.91,1157.13 1421.71,1154.42 1419.06,1154.58C1415.88,1155.16 1416.74,1159.86 1419.7,1162.06C1422.33,1164.02 1424.95,1162.9 1424.63,1159.96C1424.6,1159.71 1424.54,1159.39 1424.47,1159.15" style="fill:rgb(169,57,17);fill-rule:nonzero;"/>
                            </g>
                            <g transform="matrix(0.480357,0,0,0.480357,-499.668,-501.923)">
                                <path d="M1284.37,1159.21C1285.33,1156.89 1284.77,1154.48 1282.2,1154.62C1278.16,1155.3 1275.9,1160.77 1278.09,1162.59C1279.82,1164.04 1283.12,1162.27 1284.37,1159.21" style="fill:rgb(169,57,17);fill-rule:nonzero;"/>
                            </g>
                            <g transform="matrix(0.480357,0,0,0.480357,-499.668,-501.923)">
                                <path d="M1440.28,1175.37C1439.71,1172.9 1437.5,1170.34 1435.09,1170.46C1431.73,1170.95 1432.66,1176.47 1435.75,1178.66C1438.39,1180.53 1440.84,1179.01 1440.36,1175.8C1440.34,1175.67 1440.31,1175.5 1440.28,1175.37" style="fill:rgb(169,57,17);fill-rule:nonzero;"/>
                            </g>
                            <g transform="matrix(0.480357,0,0,0.480357,-499.668,-501.923)">
                                <path d="M1268.54,1175.41C1269.29,1173.32 1269.05,1170.33 1266.16,1170.55C1262,1171.47 1260.14,1177.72 1262.72,1179.24C1264.54,1180.31 1267.48,1178.38 1268.54,1175.41" style="fill:rgb(169,57,17);fill-rule:nonzero;"/>
                            </g>
                            <g transform="matrix(0.480357,0,0,0.480357,-499.668,-501.923)">
                                <path d="M1453.04,1195C1452.68,1192.46 1450.65,1189.69 1448.31,1189.77C1445.03,1190.1 1445.1,1195.99 1448.41,1198.52C1450.99,1200.48 1453.55,1198.54 1453.04,1195" style="fill:rgb(169,57,17);fill-rule:nonzero;"/>
                            </g>
                            <g transform="matrix(0.480357,0,0,0.480357,-499.668,-501.923)">
                                <path d="M1255.73,1195.03C1256.34,1192.78 1255.88,1189.6 1252.95,1189.9C1248.85,1191.09 1247.61,1197.61 1250.31,1199.11C1252.2,1200.16 1254.88,1198.14 1255.73,1195.03" style="fill:rgb(169,57,17);fill-rule:nonzero;"/>
                            </g>
                            <g transform="matrix(0.480357,0,0,0.480357,-499.668,-501.923)">
                                <path d="M1461.32,1217.4C1461.21,1214.44 1459.3,1211.87 1457.23,1211.9C1453.93,1212.08 1453.32,1218.29 1456.35,1221.01C1458.72,1223.14 1461.46,1221.15 1461.32,1217.4" style="fill:rgb(169,57,17);fill-rule:nonzero;"/>
                            </g>
                            <g transform="matrix(0.480357,0,0,0.480357,-499.668,-501.923)">
                                <path d="M1247.42,1217.44C1247.88,1214.7 1246.76,1211.87 1244.35,1212.02C1240.46,1212.77 1239.55,1219.77 1242.3,1221.6C1244.26,1222.9 1246.85,1220.81 1247.42,1217.44" style="fill:rgb(169,57,17);fill-rule:nonzero;"/>
                            </g>
                            <g transform="matrix(0.480357,0,0,0.480357,-499.668,-501.923)">
                                <path d="M1464.08,1241.55C1464.27,1239.05 1463.07,1235.71 1460.35,1235.92C1456.54,1236.81 1456.4,1243.9 1459.32,1245.75C1459.86,1246.09 1460.24,1246.12 1460.65,1246.15L1460.65,1246.15C1463.11,1245.97 1463.96,1243.17 1464.08,1241.55" style="fill:rgb(169,57,17);fill-rule:nonzero;"/>
                            </g>
                            <g transform="matrix(0.480357,0,0,0.480357,-499.668,-501.923)">
                                <path d="M1460.99,1265.58C1461.5,1262.83 1460.39,1259.99 1457.92,1260.15C1453.95,1260.89 1452.99,1267.88 1455.77,1269.7C1457.74,1270.98 1460.37,1268.9 1460.99,1265.58" style="fill:rgb(169,57,17);fill-rule:nonzero;"/>
                            </g>
                            <g transform="matrix(0.480357,0,0,0.480357,-499.668,-501.923)">
                                <path d="M1247.85,1266.01C1247.71,1263.04 1245.8,1260.47 1243.76,1260.51C1240.49,1260.69 1240.01,1266.88 1243.05,1269.59C1245.42,1271.69 1248.02,1269.75 1247.85,1266.01" style="fill:rgb(169,57,17);fill-rule:nonzero;"/>
                            </g>
                            <g transform="matrix(0.480357,0,0,0.480357,-499.668,-501.923)">
                                <path d="M1452.44,1287.84C1453.11,1285.58 1452.68,1282.38 1449.64,1282.68C1445.51,1283.88 1444.25,1290.36 1446.97,1291.86C1448.83,1292.88 1451.54,1290.88 1452.44,1287.84" style="fill:rgb(169,57,17);fill-rule:nonzero;"/>
                            </g>
                            <g transform="matrix(0.480357,0,0,0.480357,-499.668,-501.923)">
                                <path d="M1256.51,1288.22C1256.14,1285.68 1254.11,1282.89 1251.79,1282.97C1248.28,1283.34 1249.04,1289.39 1252.09,1291.69C1254.63,1293.59 1257.02,1291.71 1256.51,1288.22" style="fill:rgb(169,57,17);fill-rule:nonzero;"/>
                            </g>
                            <g transform="matrix(0.480357,0,0,0.480357,-499.668,-501.923)">
                                <path d="M1439.49,1307.31C1440.34,1305.12 1439.99,1302.2 1437.1,1302.42C1432.91,1303.34 1431.06,1309.55 1433.67,1311.06C1435.47,1312.1 1438.35,1310.24 1439.49,1307.31" style="fill:rgb(169,57,17);fill-rule:nonzero;"/>
                            </g>
                            <g transform="matrix(0.480357,0,0,0.480357,-499.668,-501.923)">
                                <path d="M1269.56,1307.61C1269,1305.14 1266.78,1302.56 1264.37,1302.68C1260.94,1303.19 1262.04,1308.61 1265.26,1310.84C1267.86,1312.65 1270.11,1311.21 1269.63,1308.04C1269.61,1307.91 1269.58,1307.74 1269.56,1307.61" style="fill:rgb(169,57,17);fill-rule:nonzero;"/>
                            </g>
                            <g transform="matrix(0.480357,0,0,0.480357,-499.668,-501.923)">
                                <path d="M1423.61,1323.37C1424.67,1321.02 1424.05,1318.61 1421.43,1318.75C1417.39,1319.42 1415.19,1324.86 1417.39,1326.66C1419.04,1328.01 1422.3,1326.29 1423.61,1323.37" style="fill:rgb(169,57,17);fill-rule:nonzero;"/>
                            </g>
                            <g transform="matrix(0.480357,0,0,0.480357,-499.668,-501.923)">
                                <path d="M1285.49,1323.59C1284.86,1321.26 1282.61,1318.83 1280.07,1318.98C1276.91,1319.57 1277.94,1324.24 1280.98,1326.43C1283.66,1328.36 1286.16,1327.04 1285.58,1323.99C1285.56,1323.87 1285.52,1323.71 1285.49,1323.59" style="fill:rgb(169,57,17);fill-rule:nonzero;"/>
                            </g>
                            <g transform="matrix(0.480357,0,0,0.480357,-499.668,-501.923)">
                                <path d="M1406.34,1335.74C1407.35,1333.56 1406.71,1331.28 1404.14,1331.39C1400.16,1331.86 1397.95,1337.11 1400.22,1338.81C1401.91,1340.08 1405.06,1338.5 1406.34,1335.74" style="fill:rgb(169,57,17);fill-rule:nonzero;"/>
                            </g>
                            <g transform="matrix(0.480357,0,0,0.480357,-499.668,-501.923)">
                                <path d="M1302.79,1335.88C1302.31,1334.02 1300.26,1331.37 1297.39,1331.57C1294.12,1332.3 1295.35,1336.84 1298.56,1338.76C1301.26,1340.38 1303.56,1338.81 1302.79,1335.88" style="fill:rgb(169,57,17);fill-rule:nonzero;"/>
                            </g>
                            <g transform="matrix(0.480357,0,0,0.480357,-499.668,-501.923)">
                                <path d="M1388.86,1344.41C1389.71,1342.35 1388.94,1340.2 1386.42,1340.26C1382.67,1340.55 1380.7,1345.3 1382.77,1347.11C1384.48,1348.59 1387.72,1347.15 1388.86,1344.41" style="fill:rgb(169,57,17);fill-rule:nonzero;"/>
                            </g>
                            <g transform="matrix(0.480357,0,0,0.480357,-499.668,-501.923)">
                                <path d="M1320.32,1344.47C1319.99,1342.69 1318.11,1340.17 1315.14,1340.41C1311.73,1341.28 1313.08,1345.59 1315.81,1347.18C1318.66,1348.85 1320.81,1347.04 1320.32,1344.47" style="fill:rgb(169,57,17);fill-rule:nonzero;"/>
                            </g>
                            <g transform="matrix(0.480357,0,0,0.480357,-499.668,-501.923)">
                                <path d="M1371.75,1349.49C1372.4,1347.33 1371.03,1345.46 1368.83,1345.49C1365.51,1345.61 1363.48,1349.76 1365.72,1351.84C1367.55,1353.53 1370.93,1352.21 1371.75,1349.49" style="fill:rgb(169,57,17);fill-rule:nonzero;"/>
                            </g>
                            <g transform="matrix(0.480357,0,0,0.480357,-499.668,-501.923)">
                                <path d="M1337.58,1349.49C1337.49,1347.49 1335.65,1345.44 1333.08,1345.55C1329.68,1346.01 1329.68,1349.98 1332.33,1351.87C1333.01,1352.36 1333.62,1352.51 1333.98,1352.59C1333.98,1352.59 1333.98,1352.59 1333.98,1352.59C1336.03,1352.97 1337.68,1351.55 1337.58,1349.49" style="fill:rgb(169,57,17);fill-rule:nonzero;"/>
                            </g>
                            <g transform="matrix(0.480357,0,0,0.480357,-499.668,-501.923)">
                                <path d="M1354.78,1351.13C1355.01,1349.33 1353.83,1347.34 1351.19,1347.21L1351.18,1347.21C1347.55,1347.39 1346.52,1351.14 1348.74,1353.21C1349.71,1354.13 1350.78,1354.18 1351.23,1354.2L1351.24,1354.2C1353.73,1354.08 1354.64,1352.21 1354.78,1351.13" style="fill:rgb(169,57,17);fill-rule:nonzero;"/>
                            </g>
                            <g transform="matrix(0.775509,0,0,0.775509,98.2076,94.6838)">
                                <path d="M0,-0.217C-0.146,2.237 -1.993,3.492 -3.293,2.022C-4.78,0.341 -4.275,-3.541 -2.088,-3.709C-0.512,-3.589 0.082,-1.595 0,-0.217" style="fill:rgb(169,57,17);fill-rule:nonzero;"/>
                            </g>
                        </g>
                        <g>
                            <g transform="matrix(0.480357,0,0,0.480357,-499.668,-501.923)">
                                <path d="M1367.12,1159.09C1367.31,1156.26 1364.91,1153.21 1361.16,1153.38C1355.99,1154.08 1355.25,1159.95 1358.89,1162.49C1362.25,1164.83 1366.86,1162.92 1367.12,1159.09" style="fill:rgb(169,57,17);fill-rule:nonzero;"/>
                            </g>
                            <g transform="matrix(0.480357,0,0,0.480357,-499.668,-501.923)">
                                <path d="M1345.07,1158.7C1345.35,1155.78 1343.04,1153.34 1340.02,1153.37C1335.21,1153.49 1332.67,1159.23 1336.08,1162.26C1339.2,1165.04 1344.66,1162.87 1345.07,1158.7" style="fill:rgb(169,57,17);fill-rule:nonzero;"/>
                            </g>
                            <g transform="matrix(0.480357,0,0,0.480357,-499.668,-501.923)">
                                <path d="M1388.37,1165.04C1388.29,1162.87 1386.29,1158.95 1381.77,1159.28C1376.64,1160.44 1377.27,1166.31 1380.68,1168.62C1384.19,1171 1388.5,1168.99 1388.37,1165.04" style="fill:rgb(169,57,17);fill-rule:nonzero;"/>
                            </g>
                            <g transform="matrix(0.480357,0,0,0.480357,-499.668,-501.923)">
                                <path d="M1323.51,1164.76C1324.04,1162.03 1322.32,1159.16 1318.93,1159.26C1313.88,1159.66 1311.69,1165.6 1314.49,1168.41C1317.29,1171.22 1322.69,1169.03 1323.51,1164.76" style="fill:rgb(169,57,17);fill-rule:nonzero;"/>
                            </g>
                            <g transform="matrix(0.480357,0,0,0.480357,-499.668,-501.923)">
                                <path d="M1408.04,1177.02C1407.84,1174.35 1405.44,1170.77 1401.46,1171C1396.62,1171.84 1396.8,1178.16 1400.67,1180.82C1404.22,1183.25 1408.35,1181.12 1408.04,1177.02" style="fill:rgb(169,57,17);fill-rule:nonzero;"/>
                            </g>
                            <g transform="matrix(0.480357,0,0,0.480357,-499.668,-501.923)">
                                <path d="M1303.66,1176.78C1304.31,1173.88 1302.81,1170.86 1299.23,1171.02C1293.75,1171.78 1291.82,1178.65 1295.29,1181.13C1298.19,1183.21 1302.73,1180.85 1303.66,1176.78" style="fill:rgb(169,57,17);fill-rule:nonzero;"/>
                            </g>
                            <g transform="matrix(0.480357,0,0,0.480357,-499.668,-501.923)">
                                <path d="M1424.55,1194.56C1424.38,1191.45 1421.77,1188.09 1418.28,1188.23C1413.26,1188.85 1413.29,1195.73 1417.25,1198.59C1420.77,1201.13 1424.79,1198.91 1424.55,1194.56" style="fill:rgb(169,57,17);fill-rule:nonzero;"/>
                            </g>
                            <g transform="matrix(0.480357,0,0,0.480357,-499.668,-501.923)">
                                <path d="M1287.01,1194.37C1287.55,1191.75 1286.45,1188.01 1282.38,1188.3C1276.97,1189.42 1275.41,1196.55 1278.95,1198.99C1281.86,1201.01 1286.15,1198.54 1287.01,1194.37" style="fill:rgb(169,57,17);fill-rule:nonzero;"/>
                            </g>
                            <g transform="matrix(0.480357,0,0,0.480357,-499.668,-501.923)">
                                <path d="M1435.71,1216.71C1435.73,1213.11 1433.09,1210.02 1430.05,1210.08C1425.4,1210.38 1424.14,1217.53 1428.14,1220.86C1431.43,1223.6 1435.67,1221.27 1435.71,1216.71" style="fill:rgb(169,57,17);fill-rule:nonzero;"/>
                            </g>
                            <g transform="matrix(0.480357,0,0,0.480357,-499.668,-501.923)">
                                <path d="M1275.77,1216.58C1276.25,1213.34 1274.45,1209.98 1271,1210.15C1265.53,1210.95 1264.33,1218.81 1268.12,1221.4C1271.06,1223.41 1275.13,1220.84 1275.77,1216.58" style="fill:rgb(169,57,17);fill-rule:nonzero;"/>
                            </g>
                            <g transform="matrix(0.480357,0,0,0.480357,-499.668,-501.923)">
                                <path d="M1439.57,1241.7C1439.82,1238.71 1438.08,1234.7 1434.15,1234.95C1428.9,1235.95 1428.39,1243.88 1432.26,1246.48C1433.22,1247.13 1434.09,1247.19 1434.61,1247.22L1434.62,1247.22C1438.17,1247 1439.4,1243.65 1439.57,1241.7" style="fill:rgb(169,57,17);fill-rule:nonzero;"/>
                            </g>
                            <g transform="matrix(0.480357,0,0,0.480357,-499.668,-501.923)">
                                <path d="M1435.45,1266.54C1435.99,1263.29 1434.2,1259.91 1430.68,1260.09C1425.13,1260.9 1423.92,1268.73 1427.77,1271.3C1430.73,1273.28 1434.75,1270.79 1435.45,1266.54" style="fill:rgb(169,57,17);fill-rule:nonzero;"/>
                            </g>
                            <g transform="matrix(0.480357,0,0,0.480357,-499.668,-501.923)">
                                <path d="M1276.1,1266.95C1276.11,1263.75 1273.79,1260.23 1270.42,1260.3C1265.8,1260.61 1264.66,1267.74 1268.71,1271.06C1272,1273.76 1276.07,1271.49 1276.1,1266.95" style="fill:rgb(169,57,17);fill-rule:nonzero;"/>
                            </g>
                            <g transform="matrix(0.480357,0,0,0.480357,-499.668,-501.923)">
                                <path d="M1424.11,1288.54C1424.72,1285.9 1423.68,1282.14 1419.49,1282.43C1413.68,1283.62 1412.84,1290.86 1416.09,1293.08C1418.95,1295.03 1423.15,1292.66 1424.11,1288.54" style="fill:rgb(169,57,17);fill-rule:nonzero;"/>
                            </g>
                            <g transform="matrix(0.480357,0,0,0.480357,-499.668,-501.923)">
                                <path d="M1287.57,1288.95C1287.42,1285.83 1284.8,1282.45 1281.28,1282.59C1276.3,1283.21 1276.49,1290.07 1280.49,1292.92C1283.94,1295.38 1287.78,1293.23 1287.57,1288.95" style="fill:rgb(169,57,17);fill-rule:nonzero;"/>
                            </g>
                            <g transform="matrix(0.480357,0,0,0.480357,-499.668,-501.923)">
                                <path d="M1407.56,1305.94C1408.32,1303.01 1406.85,1299.96 1403.14,1300.13C1401.89,1300.3 1401.13,1300.62 1400.02,1301.45C1400.02,1301.46 1400.02,1301.46 1400.02,1301.46C1396,1305.01 1397.28,1310.44 1401.16,1310.89C1403.85,1311.2 1406.78,1308.93 1407.56,1305.94" style="fill:rgb(169,57,17);fill-rule:nonzero;"/>
                            </g>
                            <g transform="matrix(0.480357,0,0,0.480357,-499.668,-501.923)">
                                <path d="M1304.27,1306.35C1304.11,1303.66 1301.73,1300.05 1297.66,1300.28C1292.75,1301.15 1293.13,1307.35 1297.16,1310.07C1300.65,1312.41 1304.5,1310.4 1304.27,1306.35" style="fill:rgb(169,57,17);fill-rule:nonzero;"/>
                            </g>
                            <g transform="matrix(0.480357,0,0,0.480357,-499.668,-501.923)">
                                <path d="M1388.02,1317.82C1388.66,1315.07 1386.99,1312.17 1383.48,1312.27C1378.39,1312.67 1376.34,1318.59 1379.23,1321.39C1381.97,1324.03 1387.06,1321.97 1388.02,1317.82" style="fill:rgb(169,57,17);fill-rule:nonzero;"/>
                            </g>
                            <g transform="matrix(0.480357,0,0,0.480357,-499.668,-501.923)">
                                <path d="M1324,1318.21C1323.99,1315.57 1321.68,1312.09 1317.36,1312.4C1312.28,1313.56 1313.09,1319.4 1316.57,1321.7C1319.98,1323.96 1324,1322.07 1324,1318.21" style="fill:rgb(169,57,17);fill-rule:nonzero;"/>
                            </g>
                            <g transform="matrix(0.480357,0,0,0.480357,-499.668,-501.923)">
                                <path d="M1367.06,1323.77C1367.47,1320.82 1365.19,1318.35 1362.08,1318.38C1357.44,1318.49 1354.96,1323.78 1358.07,1326.95C1361.08,1330.02 1366.45,1328.12 1367.06,1323.77" style="fill:rgb(169,57,17);fill-rule:nonzero;"/>
                            </g>
                            <g transform="matrix(0.480357,0,0,0.480357,-499.668,-501.923)">
                                <path d="M1345.26,1324.2C1345.57,1321.33 1343.18,1318.26 1339.25,1318.43C1334.29,1319.1 1333.5,1324.44 1336.87,1327.2C1340.12,1329.85 1344.82,1328.17 1345.26,1324.2" style="fill:rgb(169,57,17);fill-rule:nonzero;"/>
                            </g>
                            <g transform="matrix(0.775509,0,0,0.775509,111.295,95.0739)">
                                <path d="M0,-0.939C-0.053,2.201 -3.014,3.907 -4.951,1.914C-7.179,-0.379 -5.938,-4.801 -3.055,-4.846C-1.335,-4.819 0.036,-3.067 0,-0.939" style="fill:rgb(169,57,17);fill-rule:nonzero;"/>
                            </g>
                        </g>
                        <g transform="matrix(0.775509,0,0,0.775509,128.549,90.4934)">
                            <path d="M0,-0.616C-0.076,1.297 -2.223,2.206 -3.482,0.857C-4.644,-0.387 -3.948,-2.796 -1.992,-2.822C-0.708,-2.805 0.041,-1.664 0,-0.616" style="fill:rgb(169,57,17);fill-rule:nonzero;"/>
                        </g>
                        <g transform="matrix(0.775509,0,0,0.775509,128.801,105.989)">
                            <path d="M0,-0.557C0.04,1.265 -2.051,2.164 -3.34,0.88C-4.667,-0.443 -3.898,-2.697 -2.112,-2.721C-0.973,-2.706 -0.026,-1.735 0,-0.557" style="fill:rgb(169,57,17);fill-rule:nonzero;"/>
                        </g>
                        <g transform="matrix(0.530633,-0.565547,-0.565547,-0.530633,136.345,114.664)">
                            <path d="M-0.41,-1.386C-1.394,-2.369 -2.98,-1.641 -2.982,-0.207C-2.984,1.211 -1.374,1.947 -0.41,0.969C-0.403,0.961 -0.392,0.949 -0.384,0.94C0.223,0.279 0.211,-0.765 -0.41,-1.386" style="fill:rgb(169,57,17);fill-rule:nonzero;"/>
                        </g>
                        <g transform="matrix(0.775509,0,0,0.775509,163.17,115.981)">
                            <path d="M0,-0.451C-0.123,0.976 -1.945,1.611 -2.826,0.534C-3.666,-0.493 -2.867,-2.046 -1.489,-2.062C-0.593,-2.052 0.075,-1.329 0,-0.451" style="fill:rgb(169,57,17);fill-rule:nonzero;"/>
                        </g>
                        <g transform="matrix(0.775509,0,0,0.775509,172.546,90.4755)">
                            <path d="M0,-0.593C-0.017,1.274 -2.125,2.206 -3.417,0.917C-4.751,-0.413 -3.89,-2.775 -2.063,-2.799C-0.776,-2.782 0.01,-1.641 0,-0.593" style="fill:rgb(169,57,17);fill-rule:nonzero;"/>
                        </g>
                        <g transform="matrix(0.775509,0,0,0.775509,172.274,106.018)">
                            <path d="M0,-0.594C-0.142,1.275 -2.385,2.164 -3.529,0.805C-4.686,-0.57 -3.699,-2.734 -1.905,-2.758C-0.765,-2.743 0.09,-1.772 0,-0.594" style="fill:rgb(169,57,17);fill-rule:nonzero;"/>
                        </g>
                    </g>
                    <g transform="matrix(0.510365,0,0,0.510365,-27.6285,-180.247)">
                        <path d="M0,-2.525C-0.012,4.475 -8.993,7.904 -14.131,2.871C-19.121,-2.016 -15.388,-10.344 -8.17,-10.429C-3.581,-10.375 0.008,-6.903 0,-2.525" style="fill:white;fill-rule:nonzero;"/>
                    </g>
                    <g transform="matrix(0.510365,0,0,0.510365,-28.9296,-170.222)">
                        <path d="M0,-1.622C-0.106,3.286 -6.351,5.625 -9.827,2.06C-13.245,-1.446 -10.686,-7.187 -5.678,-7.247C-2.427,-7.208 0.067,-4.737 0,-1.622" style="fill:white;fill-rule:nonzero;"/>
                    </g>
                    <g transform="matrix(0.510365,0,0,0.510365,-29.2306,-160.147)">
                        <path d="M0,-1.338C-0.139,3.054 -5.892,5.022 -8.922,1.713C-11.776,-1.404 -9.447,-6.308 -5.088,-6.36C-2.147,-6.325 0.088,-4.119 0,-1.338" style="fill:white;fill-rule:nonzero;"/>
                    </g>
                    <g transform="matrix(0.510365,0,0,0.510365,-29.9851,-151.061)">
                        <path d="M0,-0.941C-0.113,2.137 -4.067,3.474 -6.223,1.163C-8.122,-0.873 -6.923,-4.376 -3.566,-4.415C-1.496,-4.391 0.07,-2.865 0,-0.941" style="fill:white;fill-rule:nonzero;"/>
                    </g>
                    <g transform="matrix(0.510365,0,0,0.510365,-40.439,-180.542)">
                        <path d="M0,-1.673C-0.37,3.115 -6.393,5.422 -9.34,1.904C-12.183,-1.488 -9.432,-7.039 -4.881,-7.095C-1.961,-7.059 0.228,-4.627 0,-1.673" style="fill:white;fill-rule:nonzero;"/>
                    </g>
                    <g transform="matrix(0.342545,-0.378332,-0.378332,-0.342545,-19.1118,-183.516)">
                        <path d="M-1.384,-4.659C-4.605,-7.928 -9.919,-5.602 -9.999,-0.887C-10.08,3.857 -4.685,6.541 -1.384,3.399C-1.275,3.294 -1.181,3.193 -1.119,3.126C1.072,0.647 0.466,-2.78 -1.384,-4.659" style="fill:white;fill-rule:nonzero;"/>
                    </g>
                </g>
                <g transform="matrix(0.627747,0,0,0.627747,-734.239,-352.329)">
                    <path d="M717.142,410.371L640.333,410.371L640.333,421.915L671.057,421.915L671.057,474L686.328,474L686.328,421.915L717.142,421.915L717.142,410.371Z" style="fill:white;fill-rule:nonzero;"/>
                    <path d="M728.959,446.367L728.959,436.823L771.226,436.823L771.226,428.551L725.686,428.551C721.414,428.551 718.051,432.005 718.051,436.186L718.051,466.365C718.051,470.546 721.414,474 725.686,474L772.772,474L772.772,465.728L728.959,465.728L728.959,454.548L765.318,454.548L765.318,446.367L728.959,446.367Z" style="fill:white;fill-rule:nonzero;"/>
                    <path d="M837.219,466.365L837.219,457.275L826.311,457.275L826.311,465.728L793.406,465.728L793.406,436.823L826.311,436.823L826.311,442.186L837.219,442.186L837.219,436.186C837.219,432.005 833.855,428.551 829.583,428.551L790.133,428.551C785.861,428.551 782.498,432.005 782.498,436.186L782.498,466.365C782.498,470.546 785.861,474 790.133,474L829.583,474C833.855,474 837.219,470.546 837.219,466.365Z" style="fill:white;fill-rule:nonzero;"/>
                    <path d="M862.125,428.551L851.217,428.551L851.217,474L862.125,474L862.125,454.548L895.121,454.548L895.121,474L906.029,474L906.029,428.551L895.121,428.551L895.121,446.367L862.125,446.367L862.125,428.551Z" style="fill:white;fill-rule:nonzero;"/>
                    <path d="M974.748,466.365L974.748,457.275L963.84,457.275L963.84,465.728L930.935,465.728L930.935,436.823L963.84,436.823L963.84,442.186L974.748,442.186L974.748,436.186C974.748,432.005 971.384,428.551 967.112,428.551L927.662,428.551C923.39,428.551 920.027,432.005 920.027,436.186L920.027,466.365C920.027,470.546 923.39,474 927.662,474L967.112,474C971.384,474 974.748,470.546 974.748,466.365Z" style="fill:white;fill-rule:nonzero;"/>
                    <path d="M1035.92,428.551L996.382,428.551C992.2,428.551 988.746,432.005 988.746,436.186L988.746,466.365C988.746,470.546 992.2,474 996.382,474L1035.92,474C1040.1,474 1043.56,470.546 1043.56,466.365L1043.56,436.186C1043.56,432.005 1040.1,428.551 1035.92,428.551ZM999.654,465.728L999.654,436.823L1032.65,436.823L1032.65,465.728L999.654,465.728Z" style="fill:white;fill-rule:nonzero;"/>
                    <path d="M1112.28,446.912L1112.28,436.186C1112.28,432.005 1108.91,428.551 1104.64,428.551L1057.56,428.551L1057.56,474L1068.46,474L1068.46,436.823L1101.37,436.823L1101.37,446.367L1073.46,446.367L1097.82,474L1112.28,474L1095.28,454.548L1104.64,454.548C1108.91,454.548 1112.28,451.185 1112.28,446.912Z" style="fill:white;fill-rule:nonzero;"/>
                    <path d="M1173.27,474L1153.55,428.551L1137.09,428.551L1117.37,474L1129.28,474L1145.36,436.914L1152.91,454.457L1143.91,454.457L1143.91,462.729L1156.54,462.729L1161.36,474L1173.27,474Z" style="fill:white;fill-rule:nonzero;"/>
                </g>
            </g>
        </g>
    </g>
    <defs>
        <radialGradient id="_Radial1" cx="0" cy="0" r="1" gradientUnits="userSpaceOnUse" gradientTransform="matrix(-0.501319,0.501319,0.501319,0.501319,0.433337,-0.102655)"><stop offset="0" style="stop-color:rgb(186,38,4);stop-opacity:0.2"/><stop offset="0.2" style="stop-color:rgb(112,23,3);stop-opacity:0.2"/><stop offset="0.42" style="stop-color:rgb(36,7,1);stop-opacity:0.2"/><stop offset="1" style="stop-color:black;stop-opacity:0.2"/></radialGradient>
    </defs>
</svg>
